<?xml version="1.0" encoding="utf-8"?>
<!-- Generator: Adobe Illustrator 16.0.3, SVG Export Plug-In . SVG Version: 6.00 Build 0)  -->
<!DOCTYPE svg PUBLIC "-//W3C//DTD SVG 1.1//EN" "http://www.w3.org/Graphics/SVG/1.1/DTD/svg11.dtd">
<svg version="1.1" id="Doggie" xmlns="http://www.w3.org/2000/svg" xmlns:xlink="http://www.w3.org/1999/xlink" x="0px" y="0px"
	 width="668.977px" height="864.567px" viewBox="108.779 21.968 668.977 864.567"
	 enable-background="new 108.779 21.968 668.977 864.567" xml:space="preserve">
<path fill="none" d="M204.645,394.122c-0.004-1.261,0-2.542-1.373-3.229c-1.365,9.113-2.7,18.233-4.1,27.342
	c-1.514,9.845-3.028,19.69-4.546,29.536h12.51c-0.38-3.926-0.74-7.854-1.082-11.782C204.842,422.03,204.694,408.09,204.645,394.122z
	"/>
<path fill="none" d="M245.138,421.632c0.064-1.558,0.921-3.614-1.37-4.574c-2.165,9.587-4.426,19.155-6.473,28.769
	c-0.138,0.646-0.265,1.295-0.4,1.94h10.501C245.751,439.197,244.771,430.498,245.138,421.632z"/>
<path fill="none" d="M606.154,436.468c-4.063,3.77-8.117,7.532-12.182,11.299c0,0.001,0.001,0.002,0.002,0.004h12.81
	c-0.002-2.941,0-5.886-0.009-8.826C606.771,438.116,606.37,437.292,606.154,436.468z"/>
<path fill="none" d="M280.381,436.47c-0.216,0.826-0.618,1.65-0.621,2.477c-0.009,2.94-0.007,5.884-0.009,8.824h12.808v-0.002
	C288.499,444.002,284.439,440.236,280.381,436.47z"/>
<path fill="none" d="M687.37,418.234c-1.402-9.109-2.736-18.228-4.1-27.342c-1.373,0.687-1.369,1.968-1.373,3.229
	c-0.053,13.968-0.197,27.908-1.408,41.864c-0.342,3.931-0.702,7.857-1.082,11.782h12.51
	C690.399,437.924,688.885,428.079,687.37,418.234z"/>
<path fill="none" d="M649.247,445.826c-2.047-9.614-4.308-19.181-6.473-28.768c-2.291,0.96-1.436,3.015-1.369,4.574
	c0.367,8.866-0.613,17.565-2.261,26.139h10.503C649.512,447.122,649.385,446.473,649.247,445.826z"/>
<path fill="none" d="M394.229,441.287c-1.4,0.134-2.803,0.291-4.202,0.469c-7.729,0.985-14.996,2.965-21.772,6.015h0.005
	c6.776-3.049,14.043-5.026,21.771-6.013C391.429,441.579,392.828,441.421,394.229,441.287z"/>
<path fill="none" d="M317.393,577.178c0.14,0.453,0.312,0.893,0.462,1.336c-0.15-0.443-0.321-0.882-0.461-1.334
	c-2.092-6.858-3.699-13.741-4.553-20.744h-0.001C313.692,563.438,315.301,570.318,317.393,577.178z"/>
<path fill="#BC8D56" d="M349.241,460.381c-12.669,11.679-21.942,25.724-28.451,41.608c-4.804,11.723-7.245,23.928-8.328,36.602
	c-0.519,6.072-0.333,12,0.378,17.845h0.001c-0.71-5.844-0.896-11.771-0.378-17.843c1.083-12.674,3.524-24.879,8.328-36.602
	c6.509-15.885,15.781-29.934,28.451-41.608c5.81-5.354,12.162-9.53,19.017-12.613h-0.005
	C361.4,450.853,355.05,455.028,349.241,460.381z"/>
<path fill="#BC8D56" d="M273.977,540.647c-0.017-0.356-0.029-0.715-0.044-1.069C273.948,539.935,273.96,540.291,273.977,540.647z"/>
<path fill="#BC8D56" d="M274.189,544.455c0-0.002,0-0.004,0-0.006C274.188,544.451,274.188,544.453,274.189,544.455z"/>
<path fill="#BC8D56" d="M273.766,534.211c-0.016-0.84-0.032-1.679-0.038-2.52C273.734,532.532,273.749,533.371,273.766,534.211z"/>
<path fill="#BC8D56" d="M273.725,529.208c0.005-1.132,0.023-2.266,0.047-3.399C273.748,526.942,273.729,528.076,273.725,529.208z"/>
<path fill="#BC8D56" d="M273.728,531.691c-0.006-0.827-0.007-1.655-0.003-2.483C273.721,530.036,273.722,530.864,273.728,531.691z"
	/>
<path fill="#BC8D56" d="M274.188,544.449c-0.081-1.269-0.15-2.534-0.211-3.802C274.037,541.915,274.108,543.183,274.188,544.449z"/>
<path fill="#BC8D56" d="M273.933,539.578c-0.078-1.787-0.132-3.577-0.167-5.367C273.8,536.002,273.856,537.791,273.933,539.578z"/>
<path fill="#BC8D56" d="M273.792,524.383c-0.014,0.478-0.01,0.95-0.02,1.426c0.01-0.472,0.013-0.94,0.027-1.415
	C273.796,524.391,273.794,524.387,273.792,524.383z"/>
<path fill="#BC8D56" d="M401.193,441.001c-2.334-0.073-4.651,0.065-6.967,0.286c-1.398,0.134-2.8,0.292-4.199,0.471
	c-7.727,0.984-14.993,2.964-21.771,6.013h33.107C401.328,445.515,401.228,443.256,401.193,441.001L401.193,441.001z"/>
<path fill="#BC8D56" d="M317.854,578.514c2.565,7.501,7.055,14.047,10.548,21.096c0,0.001,0.001,0.002,0.002,0.003
	c0-0.006-0.001-0.009-0.001-0.013C324.912,592.56,320.423,586.014,317.854,578.514z"/>
<path fill="#BC8D56" d="M401.193,441L401.193,441c-2.334-0.073-4.651,0.065-6.967,0.287
	C396.542,441.066,398.859,440.928,401.193,441C401.193,441.001,401.193,441.001,401.193,441z"/>
<path fill="#BC8D56" d="M429.389,411.097c-2.293-0.06-3.938,0.542-5.513,2.309c-6.7,7.526-13.512,14.952-20.371,22.333
	c-1.438,1.547-2.316,3.165-2.312,5.261l0,0l0,0c-0.005-2.095,0.874-3.713,2.312-5.26c6.859-7.381,13.671-14.807,20.371-22.333
	C425.45,411.64,427.096,411.038,429.389,411.097c4.603,0.121,9.203-0.031,13.809-0.071c0,0,0,0,0-0.001
	C438.592,411.065,433.989,411.217,429.389,411.097z"/>
<path fill="#BC8D56" d="M401.195,441c0,0-0.001,0-0.002,0l0,0c0.033,2.255,0.134,4.514,0.172,6.769h0.002
	C401.33,445.514,401.229,443.255,401.195,441z"/>
<path fill="#BC8D56" d="M406.632,463.062c-3.684-2.834-5.563-6.136-5.313-10.841c0.078-1.479,0.072-2.965,0.049-4.45h-0.002
	c0.023,1.485,0.029,2.972-0.049,4.45c-0.254,4.705,1.63,8.007,5.313,10.841c7.114,5.475,13.997,11.242,20.977,16.894
	c0,0,0,0,0.003,0.001c0-0.001,0.001-0.001,0.002-0.001C420.629,474.304,413.746,468.534,406.632,463.062z"/>
<path fill="#BC8D56" d="M755.161,49.181c-14.798-7.788-29.638-15.496-44.447-23.26c-1.347-0.706-2.563-1.247-4.224-0.869
	c-30.336,6.901-60.486,14.545-88.609,28.2c-34.721,16.858-61.067,42.39-77.582,77.598c-0.546,1.164-1.01,2.367-1.493,3.56
	c-0.077-0.017-0.15-0.032-0.229-0.05c-8.438-0.928-16.908-1.167-25.363-0.777c-26.033,1.199-49.609,8.784-68.938,27.105
	c-0.27,0.253-0.617,0.415-0.933,0.619c0,0.027,0,0.055,0,0.083c-0.021-0.049-0.047-0.083-0.07-0.083c-0.021,0-0.05,0.036-0.07,0.087
	c0-0.029,0-0.058,0-0.087c-0.313-0.204-0.663-0.366-0.934-0.619c-19.328-18.321-42.905-25.906-68.938-27.105
	c-8.456-0.39-16.929-0.151-25.364,0.777c-0.077,0.018-0.154,0.033-0.229,0.05c-0.484-1.193-0.948-2.396-1.494-3.56
	c-16.518-35.208-42.861-60.739-77.583-77.598c-28.124-13.655-58.274-21.299-88.61-28.2c-1.661-0.378-2.876,0.163-4.223,0.869
	c-14.81,7.764-29.649,15.473-44.447,23.26c-6.617,3.481-13.159,7.106-19.735,10.665c1.386,1.188,3.067,0.824,4.648,0.826
	c16.651,0.021,33.303,0.001,49.954,0.033c1.568,0.003,3.259-0.458,4.654,0.744c-0.397,1.165-1.406,1.696-2.357,2.295
	c-14.681,9.248-29.237,18.695-44.201,27.487c-0.663,0.389-1.706,0.582-1.501,2.374c14.527,0,29.101,0,43.675,0
	c0.048,0.273,0.095,0.548,0.143,0.821c-14.704,11.239-29.408,22.479-44.238,33.814c1.263,0.95,2.078,0.454,2.885,0.287
	c15.633-3.233,31.264-6.477,46.9-9.699c1.283-0.264,3.039-1.219,3.755,0.224c0.938,1.89-1.285,2.398-2.381,3.169
	c-9.188,6.465-18.434,12.847-27.652,19.271c-3.719,2.59-7.415,5.214-11.996,8.438c13.918,1.112,26.695,2.133,39.471,3.153
	c0.035,0.304,0.069,0.607,0.104,0.911c-9.863,6.388-19.726,12.776-30.511,19.761c13.663,1.126,26.07,2.237,38.492,3.137
	c6.91,0.501,6.792,0.39,9.087,6.662c3.529,9.646,7.242,19.222,15.307,26.213c-0.85,1.195-1.647,2.435-2.61,3.529
	c-10.272,11.675-18.979,24.436-26.304,38.131c-13.863,25.917-22.201,53.554-26.459,82.62c-3.956,27.001-3.616,53.987-1.047,80.985
	c1.047,11.001,2.626,21.917,4.716,32.738c2.09,10.822,4.689,21.554,7.775,32.182c4.497,15.49,9.956,30.614,16.992,45.144
	c0.593,1.228,0.851,2.873,2.921,3.335c2.125-13.112,4.268-25.984,6.284-38.882c2.177-13.923,4.331-27.85,6.478-41.775
	c1.518-9.847,3.032-19.689,4.546-29.535c1.4-9.109,2.735-18.229,4.1-27.342c1.373,0.687,1.369,1.968,1.373,3.229
	c0.049,13.968,0.197,27.908,1.409,41.864c0.341,3.931,0.702,7.856,1.082,11.783c1.145,11.816,2.47,23.608,4.01,35.385
	c1.891,14.447,4.445,28.795,7.158,43.106c1.1,5.812,2.377,11.582,3.573,17.371c0.924-1.229,1.38-2.396,1.481-3.595
	c1.104-13.16,2.789-26.255,4.637-39.323c2.507-17.725,5.238-35.417,8.9-52.944c0.135-0.647,0.262-1.298,0.4-1.942
	c2.047-9.614,4.308-19.182,6.473-28.769c2.291,0.96,1.434,3.016,1.37,4.574c-0.368,8.866,0.613,17.565,2.258,26.14
	c1.192,6.209,2.731,12.353,4.37,18.44c5.397,20.054,13.656,39.167,22.033,58.168c0,0.005,0,0.009,0,0.016
	c-0.014,0.473-0.017,0.941-0.027,1.414c-0.024,1.135-0.042,2.269-0.047,3.398c-0.004,0.828-0.003,1.656,0.003,2.483
	c0.006,0.841,0.021,1.68,0.038,2.52c0.035,1.79,0.089,3.58,0.167,5.367c0.015,0.355,0.027,0.713,0.044,1.069
	c0.061,1.268,0.131,2.533,0.211,3.802c0,0.002,0,0.004,0,0.006c0.132,2.08,0.293,4.158,0.475,6.235
	c0.13,1.509,0.284,3.016,0.438,4.521c0.042,0.407,0.075,0.813,0.118,1.221h-0.002c0.205,1.919,0.442,3.835,0.679,5.751
	c0.4,3.275,0.83,6.549,1.321,9.814c2.596,17.303,6.792,34.188,13.063,50.54c0.001,0.001,0.001,0.003,0.002,0.005
	c-0.284,0.814-0.621,1.621-0.846,2.453c-15.787,58.5-31.57,117.001-47.34,175.506c-7.722,28.648-15.417,57.378-23.124,86.03
	c27.497,0,421.092,0,448.589,0c-7.706-28.652-15.399-57.382-23.121-86.03C628.673,742,612.89,683.499,597.104,624.998
	c-0.228-0.833-0.563-1.64-0.85-2.455c0.001-0.001,0.001-0.002,0.002-0.003c6.271-16.352,10.467-33.237,13.063-50.54
	c0.774-5.181,1.447-10.368,2.004-15.564h0.003c0.011-0.101,0.02-0.2,0.03-0.303c0.118-1.137,0.233-2.272,0.342-3.413
	c0.049-0.517,0.092-1.033,0.138-1.55c0.145-1.604,0.272-3.213,0.386-4.821c0.066-0.932,0.13-1.861,0.188-2.795
	c0.044-0.735,0.086-1.474,0.123-2.211c0.081-1.586,0.148-3.173,0.198-4.761c0.008-0.22,0.011-0.438,0.017-0.658
	c0.046-1.645,0.066-3.29,0.074-4.937c0.002-0.388,0.003-0.771,0.002-1.156c-0.003-1.815-0.021-3.632-0.073-5.451
	c8.378-19.001,16.636-38.114,22.033-58.168c1.638-6.09,3.177-12.232,4.369-18.441c1.646-8.572,2.626-17.271,2.259-26.139
	c-0.064-1.559-0.922-3.614,1.369-4.574c2.165,9.587,4.426,19.154,6.473,28.768c0.138,0.646,0.266,1.296,0.4,1.941
	c3.661,17.528,6.393,35.223,8.898,52.945c1.852,13.068,3.533,26.163,4.641,39.323c0.101,1.197,0.557,2.364,1.479,3.595
	c1.197-5.789,2.476-11.563,3.574-17.371c2.712-14.313,5.267-28.661,7.157-43.106c1.539-11.774,2.865-23.566,4.011-35.386
	c0.38-3.925,0.74-7.853,1.082-11.782c1.211-13.956,1.356-27.896,1.408-41.864c0.004-1.261,0-2.542,1.372-3.229
	c1.362,9.114,2.696,18.233,4.101,27.342c1.515,9.845,3.029,19.69,4.547,29.537c2.147,13.929,4.302,27.854,6.479,41.775
	c2.018,12.896,4.157,25.768,6.282,38.882c2.069-0.462,2.327-2.107,2.922-3.335c7.034-14.525,12.494-29.649,16.989-45.144
	c3.087-10.628,5.688-21.357,7.775-32.182c2.09-10.821,3.669-21.737,4.716-32.741c2.568-26.999,2.909-53.984-1.048-80.985
	c-4.258-29.066-12.597-56.704-26.459-82.62c-7.324-13.695-16.031-26.456-26.303-38.131c-0.965-1.095-1.766-2.334-2.61-3.529
	c8.063-6.992,11.777-16.57,15.307-26.213c2.298-6.271,2.181-6.161,9.089-6.662c12.424-0.899,24.827-2.011,38.491-3.137
	c-10.784-6.985-20.646-13.373-30.513-19.761c0.035-0.304,0.067-0.607,0.104-0.911c12.773-1.02,25.554-2.041,39.472-3.153
	c-4.58-3.225-8.276-5.849-11.995-8.438c-9.22-6.421-18.464-12.803-27.652-19.271c-1.097-0.771-3.315-1.28-2.382-3.169
	c0.718-1.443,2.476-0.488,3.756-0.224c15.638,3.222,31.271,6.466,46.9,9.699c0.808,0.167,1.621,0.663,2.885-0.287
	c-14.83-11.335-29.534-22.575-44.235-33.814c0.048-0.273,0.096-0.547,0.144-0.821c14.573,0,29.147,0,43.675,0
	c0.204-1.792-0.839-1.984-1.501-2.374c-14.973-8.79-29.528-18.237-44.209-27.485c-0.95-0.599-1.96-1.13-2.354-2.295
	c1.396-1.202,3.086-0.741,4.651-0.744c16.651-0.032,33.306-0.012,49.955-0.033c1.58-0.002,3.264,0.36,4.647-0.826
	C768.32,56.287,761.778,52.663,755.161,49.181z M606.154,436.467c0.216,0.824,0.616,1.648,0.621,2.477
	c0.009,2.94,0.007,5.885,0.009,8.825c0.008,8.352,0.001,16.7-0.003,25.051c0,1.009-0.104,1.979-0.813,2.782
	c-3.481-9.497-7.38-18.818-11.992-27.835c-0.001-0.001-0.001-0.001-0.002-0.002C598.038,443.998,602.092,440.234,606.154,436.467z
	 M279.759,438.945c0.003-0.824,0.405-1.648,0.621-2.477c4.058,3.768,8.118,7.531,12.177,11.298
	c-4.613,9.017-8.509,18.34-11.994,27.835c-0.708-0.8-0.81-1.771-0.811-2.78c-0.003-8.353-0.01-16.7-0.002-25.051
	C279.752,444.829,279.75,441.887,279.759,438.945z"/>
<path fill="#BC8D56" d="M485.166,447.771L485.166,447.771c0.022-1.319,0.06-2.642,0.102-3.963
	C485.226,445.129,485.188,446.449,485.166,447.771z"/>
<path fill="#BC8D56" d="M485.217,452.221c0.252,4.705-1.63,8.007-5.313,10.841c-7.114,5.475-13.997,11.242-20.979,16.894
	c0,0,0,0,0.001,0l0,0c6.979-5.647,13.861-11.419,20.979-16.89C483.59,460.228,485.47,456.926,485.217,452.221
	c-0.078-1.479-0.075-2.965-0.051-4.45l0,0C485.141,449.256,485.138,450.74,485.217,452.221z"/>
<path fill="#CA9C6A" d="M401.195,441c0.058,3.741,0.317,7.493,0.123,11.221c-0.252,4.705,1.63,8.007,5.313,10.841
	c7.114,5.475,13.997,11.242,20.979,16.894c-10.104,3.274-20.065,6.903-29.068,12.681c-12.566,8.065-21.903,18.689-24.77,33.741
	c-1.99,10.472-1.179,21.162-1.061,31.771c0.053,4.727,0.508,9.432,1.326,14.094c1.377,18.191,5.313,35.94,9.404,53.662
	c1.093,4.729,2.375,9.42,3.59,14.122c1.105,4.288,0.653,4.913-3.775,4.001c-9.809-2.021-18.521-6.439-26.555-12.366
	c-10.813-7.979-19.039-18.229-26.342-29.331c-0.612-0.937-1.307-1.813-1.959-2.72c-3.7-7.467-8.548-14.354-11.011-22.43
	c-3.838-12.585-6.067-25.237-4.931-38.587c1.083-12.674,3.523-24.879,8.328-36.602c6.509-15.885,15.781-29.934,28.451-41.608
	c11.552-10.646,25.242-16.645,40.783-18.625C393.745,441.282,397.447,440.883,401.195,441z"/>
<polygon fill="#794722" points="312.674,824.246 312.88,824.332 312.718,824.198 "/>
<g>
	<path fill="#CA9C6A" d="M443.348,702.033"/>
	<path fill="#CA9C6A" d="M443.26,886.526c0,0,0-124.008,0-184.514c-0.302,0.002-0.591,0.281-0.858,0.772
		c-0.34,0.521-0.489,1.151-0.728,1.731c-3.787,9.377-7.551,18.767-11.374,28.127c-0.521,1.273-0.762,2.807-2.383,3.896
		c-2.747-7.496-5.377-14.673-8.256-22.527c-8.169,15.052-15.956,29.396-23.742,43.741c-0.273-0.091-0.547-0.181-0.821-0.271
		c-2.808-12.792-5.615-25.584-8.423-38.375c-0.284-0.001-0.567-0.002-0.854-0.002c-6.196,15.108-12.396,30.223-18.59,45.334
		c-0.264-0.053-0.522-0.103-0.784-0.148c-5.57-21.004-11.145-42.009-16.711-63.013c-0.271,0.021-0.541,0.047-0.813,0.068
		c-1.641,13.229-3.281,26.452-4.963,40.018c-0.813-0.488-1.256-0.686-1.612-0.981c-5.063-4.259-10.156-8.486-15.161-12.817
		c-2.146-1.861-3.181-1.587-3.988,1.219c-1.944,6.713-4.104,13.362-6.2,20.033c-0.947,3.011-1.956,6.002-3.21,9.842
		c-2.703-5.138-4.979-9.462-7.256-13.787c-0.344,0.063-0.684,0.13-1.021,0.195c-0.75,5.227-3.117,10.271-2.353,15.637
		c1.862,13.088,4.253,26.104,6.153,39.187c1.183,8.103,3.223,16.088,3.354,24.33c0.017,0.016,0.031,0.027,0.047,0.041l0.162,0.137
		l-0.206-0.088c0-0.027-0.003-0.062-0.004-0.09c-5.857-4.769-10.146-11.146-16.055-15.999c-0.576,1.138-0.175,1.96-0.008,2.806
		c1.982,10.029,3.901,20.073,5.983,30.088c0.434,2.088-0.085,2.752-2.123,2.634c-4.36-0.251-8.723-0.487-13.087-0.621
		c-4.455-0.136-4.524-0.026-2.769,3.938c3.995,9.015,8.162,17.952,12.005,27.029c1.73,4.092,4.388,7.853,4.847,12.439
		C343.65,886.535,443.26,886.526,443.26,886.526z"/>
</g>
<path fill="#CA9C6A" d="M485.34,441c-0.059,3.741-0.322,7.493-0.123,11.221c0.252,4.705-1.63,8.007-5.313,10.841
	c-7.114,5.475-13.997,11.242-20.979,16.894c10.104,3.274,20.065,6.903,29.067,12.681c12.563,8.065,21.901,18.689,24.768,33.741
	c1.992,10.472,1.179,21.162,1.063,31.771c-0.057,4.727-0.509,9.432-1.326,14.094c-1.377,18.191-5.314,35.94-9.404,53.662
	c-1.093,4.729-2.375,9.42-3.59,14.122c-1.108,4.288-0.656,4.913,3.775,4.001c9.809-2.021,18.521-6.439,26.555-12.366
	c10.81-7.979,19.039-18.229,26.342-29.331c0.613-0.937,1.304-1.813,1.959-2.72c3.7-7.467,8.547-14.354,11.008-22.43
	c3.839-12.585,6.07-25.237,4.935-38.587c-1.083-12.674-3.524-24.879-8.327-36.602c-6.51-15.885-15.781-29.934-28.451-41.608
	c-11.552-10.646-25.244-16.645-40.785-18.625C492.789,441.282,489.088,440.883,485.34,441z"/>
<polygon fill="#794722" points="573.86,824.246 573.654,824.332 573.816,824.198 "/>
<path fill="#261714" d="M485.34,441c0.005-2.096-0.875-3.714-2.313-5.261c-6.859-7.381-13.67-14.808-20.37-22.333
	c-1.572-1.766-3.221-2.369-5.517-2.309c-4.599,0.121-9.199-0.032-13.805-0.072c0,0.01,0,0.019,0,0.029
	c-0.021-0.011-0.047-0.029-0.071-0.029c-0.021,0-0.049,0.018-0.069,0.029c0-0.01,0-0.02,0-0.029
	c-4.604,0.04-9.206,0.192-13.809,0.072c-2.293-0.06-3.938,0.542-5.513,2.309c-6.7,7.526-13.512,14.952-20.371,22.333
	c-1.438,1.547-2.314,3.165-2.312,5.261c0.058,3.741,0.317,7.493,0.122,11.221c-0.254,4.705,1.631,8.007,5.313,10.841
	c7.114,5.475,13.997,11.242,20.977,16.894c3.688,2.867,7.354,5.754,11.063,8.586c1.313,1.005,2.525,2.347,4.457,1.984
	c0.047,0.043,0.095,0.065,0.143,0.065c0.052,0,0.1-0.022,0.146-0.064c1.931,0.356,3.141-0.98,4.455-1.985
	c3.708-2.832,7.376-5.719,11.061-8.586c6.979-5.647,13.861-11.419,20.979-16.89c3.685-2.838,5.563-6.14,5.313-10.845
	C485.018,448.493,485.281,444.741,485.34,441z"/>
<path fill="#946735" d="M512.762,526.373c-2.86-15.052-12.2-25.676-24.768-33.741c-9.002-5.777-18.964-9.402-29.067-12.681
	c-3.685,2.867-7.353,5.754-11.061,8.586c-1.331,1.018-2.553,2.388-4.526,1.978c0,0.033,0,0.066,0,0.104
	c-0.021-0.041-0.047-0.068-0.071-0.068c-0.021,0-0.05,0.027-0.069,0.07c0-0.034,0-0.067,0-0.104c-1.978,0.41-3.195-0.96-4.526-1.978
	c-3.708-2.832-7.376-5.719-11.061-8.586c-10.104,3.274-20.065,6.902-29.068,12.681c-12.566,8.065-21.903,18.689-24.768,33.741
	c-1.992,10.472-1.181,21.162-1.063,31.771c0.053,4.728,0.508,9.433,1.326,14.095c3.298,0.512,6.598,1.021,9.896,1.536
	c2.853,0.277,5.698,0.563,8.551,0.847c0.003,0,0.006-0.001,0.01-0.001c5.633,1.635,11.514,1.768,17.239,2.868
	c2.324,0.443,4.283-0.182,6.338-1.405c8.979-5.372,18.066-10.568,27.118-15.828c0,0,0.048,0.021,0.069,0.021
	c0.024,0,0.071-0.021,0.071-0.021c9.049,5.26,18.136,10.456,27.117,15.828c2.053,1.229,4.012,1.854,6.338,1.405
	c5.727-1.103,11.61-1.233,17.245-2.869c0.006,0,0.013,0.001,0.02,0.002c2.853-0.282,5.698-0.565,8.548-0.847
	c3.303-0.516,6.603-1.024,9.897-1.536c0.815-4.662,1.271-9.367,1.326-14.095C513.938,547.535,514.754,536.845,512.762,526.373z
	 M443.196,498.017c0.001,0,0.001-0.001,0.002-0.002c0-0.021,0-0.047,0-0.066c0.02,0.041,0.045,0.061,0.066,0.063
	C443.243,498.016,443.197,498.288,443.196,498.017z M443.267,498.014L443.267,498.014c0.025,0.001,0.052-0.022,0.072-0.063
	c0,0.02,0,0.044,0,0.063c-0.001-0.001-0.002-0.002-0.003-0.003C443.336,498.282,443.292,498.028,443.267,498.014z"/>
<polygon fill="#160E0D" points="410.103,459.827 438.603,481.993 428.603,459.827 "/>
<polygon fill="#160E0D" points="476.437,459.827 447.937,481.993 457.937,459.827 "/>
<path fill="#956F4A" d="M347.96,134.98c-7.989,1.817-16.132,2.863-24.057,5.031c-17.506,4.788-34.233,11.495-50.408,19.703
	c-16.635,8.441-32.059,18.688-46.379,30.593c-6.039,5.021-11.65,10.529-17.112,16.182c-1.208,1.249-2.569,2.348-3.86,3.517
	c-8.256-7.012-12.006-16.702-15.575-26.455c-2.295-6.271-2.177-6.161-9.087-6.662c-12.422-0.9-24.829-2.011-38.492-3.137
	c10.785-6.985,20.648-13.373,30.511-19.761c-0.035-0.304-0.069-0.607-0.104-0.911c-12.776-1.02-25.553-2.041-39.471-3.153
	c4.581-3.225,8.277-5.849,11.996-8.438c9.219-6.421,18.464-12.803,27.652-19.271c1.097-0.771,3.319-1.28,2.381-3.169
	c-0.716-1.443-2.472-0.488-3.755-0.224c-15.636,3.222-31.267,6.466-46.9,9.699c-0.807,0.167-1.622,0.663-2.885-0.287
	c14.83-11.335,29.534-22.575,44.238-33.814c-0.048-0.273-0.095-0.547-0.143-0.821c-14.574,0-29.148,0-43.675,0
	c-0.205-1.792,0.838-1.984,1.501-2.374c14.964-8.792,29.52-18.239,44.201-27.487c0.951-0.599,1.96-1.13,2.357-2.295
	c-1.395-1.202-3.086-0.741-4.654-0.744c-16.651-0.032-33.303-0.012-49.954-0.033c-1.582-0.002-3.262,0.36-4.648-0.826
	c6.576-3.559,13.118-7.184,19.735-10.665c14.798-7.788,29.637-15.496,44.447-23.26c1.347-0.706,2.563-1.247,4.223-0.869
	c30.336,6.901,60.486,14.545,88.61,28.2c34.721,16.858,61.068,42.39,77.583,77.598C346.869,132.2,347.388,133.603,347.96,134.98z"/>
<path fill="#946735" d="M198.044,82.474c-0.693-7.843,0.591-16.665,0.662-25.518c0.022-2.765,0.925-3.982,3.873-3.057
	c5.917,1.858,11.796,3.937,17.832,5.298c10.063,2.271,19.48,6.339,28.944,10.164c5.093,2.059,10.178,4.381,15.03,7.212
	c5.754,3.358,11.529,6.625,16.929,10.54c14.292,10.361,26.431,22.742,35.68,37.854c1.104,1.805,2.151,3.651,3.367,5.379
	c1.849,2.629,0.911,3.818-1.951,4.208c-0.739,0.104-1.471,0.464-2.195,0.433c-11.25-0.483-22.323,1.589-33.468,2.479
	c-6.922,0.552-13.975-0.063-20.811,1.921c-1.935,0.563-3.448,1.329-4.655,2.806c-8.431,10.308-17.875,19.701-26.716,29.639
	c-3.065,3.447-6.197,6.833-9.265,10.277c-1.492,1.676-2.827,1.998-4.088-0.211c-3.073-5.378-6.329-10.728-8.214-16.624
	c-5.706-17.847-8.547-36.181-9.744-54.904C198.68,101.413,197.859,92.489,198.044,82.474z"/>
<path fill="#956F4A" d="M540.299,130.85c16.518-35.208,42.861-60.739,77.582-77.598c28.123-13.655,58.273-21.299,88.609-28.2
	c1.661-0.378,2.877,0.163,4.224,0.869c14.813,7.764,29.649,15.473,44.447,23.26c6.617,3.481,13.159,7.106,19.734,10.665
	c-1.39,1.188-3.066,0.824-4.647,0.826c-16.652,0.021-33.303,0.001-49.955,0.033c-1.568,0.003-3.259-0.458-4.654,0.744
	c0.397,1.165,1.406,1.696,2.357,2.295c14.681,9.248,29.235,18.695,44.201,27.487c0.661,0.389,1.705,0.582,1.501,2.374
	c-14.526,0-29.104,0-43.676,0c-0.051,0.273-0.098,0.548-0.146,0.821c14.704,11.239,29.408,22.479,44.238,33.814
	c-1.267,0.95-2.078,0.454-2.888,0.287c-15.635-3.233-31.266-6.477-46.897-9.699c-1.283-0.264-3.039-1.219-3.756,0.224
	c-0.938,1.89,1.284,2.398,2.382,3.169c9.188,6.465,18.435,12.847,27.65,19.271c3.721,2.59,7.416,5.214,11.994,8.438
	c-13.918,1.112-26.691,2.133-39.472,3.153c-0.035,0.304-0.065,0.607-0.104,0.911c9.859,6.388,19.726,12.776,30.511,19.761
	c-13.663,1.126-26.069,2.237-38.491,3.137c-6.91,0.501-6.792,0.39-9.088,6.662c-3.568,9.753-7.318,19.443-15.574,26.455
	c-1.291-1.169-2.648-2.268-3.856-3.517c-5.464-5.652-11.073-11.161-17.112-16.182c-14.32-11.906-29.744-22.152-46.379-30.593
	c-16.175-8.208-32.902-14.915-50.408-19.703c-7.924-2.167-16.068-3.213-24.057-5.031C539.146,133.603,539.666,132.2,540.299,130.85z
	"/>
<path fill="#946735" d="M688.49,82.474c0.689-7.843-0.59-16.665-0.662-25.518c-0.021-2.765-0.924-3.982-3.873-3.057
	c-5.917,1.858-11.795,3.937-17.831,5.298c-10.063,2.271-19.48,6.339-28.944,10.164c-5.092,2.059-10.178,4.381-15.025,7.212
	c-5.754,3.358-11.529,6.625-16.933,10.54c-14.292,10.361-26.431,22.742-35.681,37.854c-1.104,1.805-2.152,3.651-3.366,5.379
	c-1.849,2.629-0.911,3.818,1.95,4.208c0.74,0.104,1.472,0.464,2.195,0.433c11.25-0.483,22.319,1.589,33.469,2.479
	c6.922,0.552,13.975-0.063,20.811,1.921c1.938,0.563,3.447,1.329,4.655,2.806c8.432,10.308,17.876,19.701,26.716,29.639
	c3.066,3.447,6.197,6.833,9.27,10.277c1.492,1.676,2.826,1.998,4.088-0.211c3.074-5.378,6.33-10.728,8.215-16.624
	c5.705-17.847,8.547-36.181,9.743-54.904C687.854,101.413,688.676,92.489,688.49,82.474z"/>
<path fill="#946735" d="M604.529,404.265c-1.738-0.16-2.572-1.596-3.357-2.766c-0.938-1.396-1.918-2.759-2.915-4.107
	c0.997,1.349,1.979,2.711,2.915,4.107C601.957,402.669,602.791,404.104,604.529,404.265c-1.129-15.643-7.745-28.976-17.168-41.184
	c-17.656-22.875-39.964-39.98-65.526-53.078c-1.666-0.854-3.328-1.717-4.992-2.575c-6.544-0.508-12.884,0.837-19.152,2.363
	c-18.657,4.544-35.538,12.799-50.576,24.779c0.764,0.227,1.464,0.226,2.127,0.095c-0.663,0.131-1.363,0.132-2.127-0.095
	c-1.26,0.738-2.519,1.476-3.771,2.214c0,0.007,0,0.014,0,0.02c-0.021-0.005-0.049-0.02-0.074-0.02c-0.021,0-0.047,0.014-0.066,0.019
	c0-0.006,0-0.013,0-0.019c-1.256-0.738-2.518-1.476-3.771-2.214c-0.752,0.224-1.44,0.226-2.098,0.101
	c0.654,0.125,1.345,0.122,2.097-0.102c-15.038-11.98-31.919-20.235-50.58-24.779c-6.269-1.526-12.606-2.871-19.149-2.363
	c-1.664,0.858-3.326,1.721-4.992,2.575c-25.564,13.098-47.87,30.203-65.527,53.078c-9.422,12.208-16.038,25.541-17.167,41.184
	c1.739-0.161,2.573-1.596,3.357-2.766c5.51-8.207,5.511-8.207,0.001,0c-0.785,1.17-1.619,2.605-3.357,2.766
	c-1.491,9.724-2.105,19.515-2.284,29.341c-0.019,1.018,0.131,1.979,0.658,2.859c4.06,3.771,8.119,7.533,12.179,11.3
	c0.849-1.063,1.796-2.062,2.532-3.193c12.731-19.66,31.049-32.116,52.603-40.04c23.482-8.636,47.438-9.137,71.639-2.881
	c8.252,2.133,15.879,5.844,23.867,8.625c0-0.211,0-0.423,0-0.634c0.021,0.005,0.047,0.019,0.067,0.019
	c0.024,0,0.053-0.014,0.073-0.02c0,0.212,0,0.423,0,0.635c7.987-2.781,15.614-6.492,23.866-8.625
	c24.201-6.256,48.152-5.755,71.639,2.881c21.555,7.924,39.868,20.38,52.604,40.04c0.732,1.136,1.682,2.135,2.53,3.193
	c4.062-3.767,8.117-7.529,12.18-11.3c0.523-0.884,0.677-1.845,0.657-2.859C606.636,423.78,606.021,413.988,604.529,404.265z"/>
<path fill="#291610" d="M375.533,389.179c-10.313,0.1-19.025-8.322-19.179-18.53c-0.156-10.332,8.263-18.876,18.646-18.925
	c10.649-0.051,19.051,8.003,19.193,18.398C394.336,380.301,385.739,389.08,375.533,389.179z"/>
<path fill="#291610" d="M511.001,389.179c10.311,0.1,19.025-8.322,19.179-18.53c0.156-10.332-8.264-18.876-18.646-18.925
	c-10.649-0.051-19.055,8.003-19.193,18.398C492.197,380.301,500.795,389.08,511.001,389.179z"/>
<circle fill="#160E0D" cx="375.274" cy="370.452" r="9.375"/>
<circle fill="#160E0D" cx="511.309" cy="370.452" r="9.376"/>
<path fill="#BC8E56" d="M736.031,334.044c-4.259-29.066-12.6-56.704-26.459-82.62c-7.324-13.695-16.031-26.456-26.307-38.131
	c-1.063-1.21-1.925-2.601-2.879-3.909c-1.291-1.169-2.648-2.268-3.856-3.517c-5.462-5.652-11.073-11.161-17.112-16.182
	c-14.32-11.906-29.744-22.152-46.379-30.593c-16.175-8.208-32.902-14.915-50.408-19.703c-7.924-2.167-16.067-3.213-24.057-5.031
	c-8.438-0.928-16.908-1.167-25.363-0.777c-26.033,1.199-49.611,8.784-68.94,27.105c-0.268,0.253-0.615,0.415-0.931,0.619
	c0,0.027,0,0.055,0,0.083c-0.021-0.049-0.047-0.083-0.071-0.083c-0.021,0-0.049,0.036-0.069,0.087c0-0.029,0-0.058,0-0.087
	c-0.313-0.204-0.663-0.366-0.934-0.619c-19.329-18.321-42.905-25.906-68.938-27.105c-8.456-0.39-16.933-0.151-25.364,0.777
	c-7.989,1.817-16.132,2.863-24.057,5.031c-17.51,4.788-34.233,11.495-50.408,19.703c-16.635,8.441-32.059,18.688-46.379,30.593
	c-6.039,5.021-11.65,10.529-17.112,16.182c-1.208,1.249-2.569,2.348-3.86,3.517c-0.955,1.308-1.814,2.698-2.879,3.909
	c-10.272,11.675-18.979,24.436-26.304,38.131c-13.863,25.917-22.201,53.554-26.459,82.62c-3.956,27.001-3.616,53.987-1.047,80.985
	c2.093,22.003,6.319,43.664,12.491,64.92c4.497,15.49,9.956,30.614,16.992,45.144c0.593,1.228,0.851,2.873,2.921,3.335
	c2.125-13.116,4.268-25.984,6.284-38.882c3.716-23.764,7.369-47.538,11.024-71.312c1.4-9.108,2.734-18.227,4.1-27.339
	c1.37,0.688,1.366,1.967,1.371,3.228c0.049,13.968,0.197,27.908,1.409,41.864c1.369,15.767,3.04,31.481,5.092,47.168
	c1.891,14.447,4.445,28.795,7.158,43.106c1.1,5.812,2.377,11.582,3.573,17.371c0.924-1.229,1.38-2.396,1.481-3.595
	c1.104-13.16,2.789-26.255,4.637-39.323c2.6-18.379,5.43-36.726,9.3-54.889c2.047-9.614,4.308-19.181,6.473-28.769
	c1.104-8.466,1.873-16.983,4.377-25.213c1.001-3.291,2.822-6.409,2.363-10.049c0.338-8.927,0.342-8.925,0.003,0.002
	c1.44-0.175,2.099-1.217,2.642-2.385c6.604-14.224,16.049-26.45,27.48-36.973c10.067-9.268,20.775-17.833,32.813-24.613
	c6.521-3.675,12.948-7.412,20.054-9.931c3.604-1.28,7.313-1.603,10.993-1.771c6.604-0.302,13.234-0.076,19.855-0.089
	c1.914-0.004,3.725,0.339,5.354,1.391c6.543-0.508,12.884,0.837,19.149,2.363c18.661,4.544,35.542,12.799,50.58,24.779
	c1.255,0.737,2.514,1.473,3.769,2.21c0.021,0.029,0.051,0.046,0.073,0.046c0.024,0,0.053-0.015,0.073-0.042
	c1.256-0.738,2.518-1.476,3.771-2.214c15.038-11.98,31.919-20.235,50.579-24.779c6.27-1.526,12.605-2.872,19.149-2.363
	c1.635-1.052,3.438-1.395,5.354-1.391c6.621,0.013,13.252-0.213,19.856,0.089c3.679,0.167,7.388,0.49,10.991,1.771
	c7.104,2.519,13.529,6.256,20.055,9.931c12.033,6.78,22.741,15.346,32.813,24.613c11.43,10.522,20.876,22.749,27.479,36.973
	c0.544,1.166,1.2,2.207,2.64,2.384c-0.458,3.639,1.358,6.756,2.36,10.047c2.506,8.23,3.274,16.748,4.378,25.213
	c2.163,9.585,4.428,19.155,6.475,28.769c3.87,18.163,6.7,36.51,9.301,54.889c1.849,13.068,3.533,26.163,4.638,39.323
	c0.104,1.197,0.56,2.364,1.479,3.595c1.197-5.789,2.474-11.563,3.574-17.371c2.712-14.313,5.267-28.658,7.153-43.106
	c2.056-15.687,3.728-31.401,5.097-47.168c1.211-13.956,1.355-27.896,1.405-41.864c0.006-1.261,0-2.542,1.372-3.229
	c-0.822-5.672-0.821-5.673,0.006-0.001c1.363,9.114,2.697,18.233,4.102,27.342c3.656,23.772,7.309,47.548,11.021,71.312
	c2.021,12.896,4.159,25.77,6.284,38.882c2.07-0.462,2.328-2.107,2.921-3.335c7.036-14.525,12.495-29.649,16.991-45.144
	c6.172-21.257,10.398-42.917,12.491-64.92C739.647,388.031,739.988,361.045,736.031,334.044z"/>
<path fill="#DEB976" d="M642.771,417.06c-1.104-8.466-1.87-16.983-4.379-25.213c-0.998-3.29-2.816-6.409-2.357-10.049
	c0.001,0,0.002,0,0.003,0c-0.341-8.928-2.751-17.482-5.093-25.99c-3.909-14.207-9.352-27.922-17.313-40.323
	c-9.32-14.517-20.225-27.692-34.813-37.557c-6.313-4.267-12.617-8.504-19.322-12.037c-5.584-2.943-11.48-5.418-17.456-7.465
	c-7.411-2.538-14.856-5.118-22.748-5.966c-12.072-1.297-24.054-1.173-35.943,1.623c-12.063,2.837-22.688,8.647-32.675,15.751
	c-2.603,1.851-4.554,4.528-7.332,6.207c0,0.014,0,0.028,0,0.042c-0.021-0.027-0.049-0.042-0.074-0.042
	c-0.021,0-0.047,0.014-0.066,0.038c0-0.013,0-0.025,0-0.038c-2.778-1.679-4.729-4.356-7.332-6.207
	c-9.984-7.104-20.608-12.914-32.676-15.751c-11.893-2.796-23.87-2.92-35.942-1.623c-7.893,0.848-15.337,3.428-22.748,5.966
	c-5.976,2.046-11.872,4.521-17.457,7.465c-6.704,3.533-13.013,7.771-19.322,12.037c-14.59,9.865-25.495,23.041-34.813,37.557
	c-7.963,12.401-13.401,26.116-17.311,40.323c-2.341,8.507-4.75,17.063-5.09,25.989c0,0,0,0-0.001,0
	c0.459,3.64-1.362,6.759-2.361,10.049c-2.505,8.23-3.275,16.747-4.378,25.213c2.292,0.96,1.434,3.015,1.37,4.574
	c-0.634,15.287,2.729,30.083,6.628,44.58c5.397,20.054,13.656,39.167,22.033,58.168c4.225,6.666,6.948,14.18,11.606,21.045
	c0.724-2.947-0.34-5.333-0.501-7.771c-0.637-9.663-1.481-19.315-2.384-28.959c-1.032-11.014-1.758-22.034-1.95-33.096
	c-0.71-0.802-0.812-1.773-0.813-2.783c-0.005-11.292-0.027-22.584,0.007-33.876c0.003-0.825,0.405-1.649,0.621-2.477
	c-0.528-0.885-0.678-1.846-0.659-2.864c0.178-9.822,0.793-19.616,2.284-29.34c1.129-15.643,7.745-28.976,17.167-41.184
	c17.657-22.875,39.963-39.98,65.527-53.078c1.666-0.854,3.328-1.717,4.992-2.575c0,0,0.001,0,0.001,0.001
	c6.543-0.508,12.884,0.837,19.149,2.363c18.661,4.544,35.542,12.799,50.58,24.779c1.255,0.737,2.515,1.473,3.769,2.21
	c0.021,0.029,0.051,0.046,0.074,0.046s0.052-0.015,0.072-0.042c1.256-0.738,2.518-1.477,3.771-2.214
	c15.038-11.98,31.919-20.235,50.579-24.779c6.27-1.526,12.604-2.872,19.148-2.363c1.663,0.858,3.325,1.721,4.99,2.574
	c25.563,13.098,47.87,30.203,65.526,53.078c9.423,12.208,16.039,25.541,17.168,41.184c1.487,9.724,2.104,19.518,2.279,29.34
	c0.021,1.021-0.131,1.979-0.654,2.864c0.216,0.824,0.613,1.648,0.621,2.477c0.029,11.292,0.012,22.584,0.006,33.876
	c0,1.01-0.104,1.981-0.813,2.783c-0.189,11.062-0.919,22.082-1.951,33.096c-0.898,9.644-1.745,19.296-2.384,28.959
	c-0.161,2.438-1.225,4.82-0.501,7.771c4.658-6.865,7.381-14.379,11.606-21.045c8.378-19.001,16.636-38.114,22.03-58.168
	c3.9-14.497,7.265-29.293,6.631-44.58C641.336,420.075,640.478,418.02,642.771,417.06z M633.389,379.413
	c-6.604-14.224-6.6-14.223,0.003,0.001c0.478,1.021,1.038,1.946,2.139,2.279C634.429,381.361,633.863,380.435,633.389,379.413z"/>
<path fill="#CA9C6A" d="M681.814,373.789c-0.229-14.847-1.895-29.547-4.217-44.203c-2.111-13.35-5.444-26.381-9.909-39.106
	c-5.071-14.454-12.354-27.667-22.367-39.396c-10.284-12.047-23.567-19.759-37.243-27.08c-17.104-9.156-35.288-15.23-54.281-18.646
	c-14.345-2.581-28.828-3.104-43.473-1.577c-12.403,1.293-24.46,3.943-36.026,8.116c-9.994,3.605-20.035,7.631-28.676,14.217
	c-0.632,0.479-1.415,0.763-2.143,1.119c-0.069-0.262-0.358-0.262-0.432-0.002c-0.726-0.354-1.508-0.636-2.139-1.117
	c-8.645-6.586-18.686-10.612-28.676-14.217c-11.566-4.173-23.623-6.823-36.026-8.116c-14.645-1.527-29.128-1.004-43.473,1.577
	c-18.993,3.416-37.178,9.491-54.281,18.646c-13.677,7.321-26.959,15.033-37.244,27.08c-10.013,11.729-17.296,24.942-22.367,39.396
	c-4.465,12.725-7.797,25.757-9.913,39.106c-2.322,14.655-3.984,29.355-4.214,44.203c-0.088,5.733-0.624,11.432-1.453,17.104
	c1.373,0.687,1.369,1.968,1.373,3.229c0.049,13.968,0.197,27.908,1.409,41.864c1.369,15.767,3.04,31.481,5.092,47.168
	c1.891,14.448,4.445,28.795,7.158,43.106c1.1,5.812,2.377,11.582,3.573,17.371c0.924-1.229,1.38-2.396,1.481-3.595
	c1.104-13.16,2.789-26.255,4.637-39.323c2.6-18.379,5.43-36.726,9.3-54.889c2.047-9.614,4.308-19.184,6.473-28.769
	c1.104-8.466,1.873-16.983,4.377-25.213c1.001-3.291,2.822-6.409,2.363-10.049c0.338-8.927,0.342-8.925,0.003,0.002
	c1.44-0.175,2.099-1.217,2.642-2.385c6.604-14.224,16.049-26.45,27.48-36.973c10.067-9.268,20.775-17.833,32.813-24.613
	c6.521-3.675,12.947-7.412,20.053-9.931c3.604-1.28,7.313-1.603,10.993-1.771c6.604-0.302,13.234-0.076,19.855-0.089
	c1.914-0.004,3.724,0.339,5.354,1.391c6.543-0.508,12.884,0.837,19.149,2.363c18.661,4.544,35.542,12.799,50.58,24.779
	c1.255,0.737,2.515,1.473,3.769,2.21c0.021,0.029,0.051,0.046,0.074,0.046s0.052-0.015,0.072-0.042
	c1.256-0.738,2.518-1.476,3.771-2.214c15.038-11.98,31.919-20.235,50.579-24.779c6.27-1.526,12.605-2.872,19.149-2.363
	c1.634-1.052,3.438-1.395,5.354-1.391c6.621,0.013,13.252-0.213,19.856,0.089c3.678,0.167,7.388,0.49,10.991,1.771
	c7.104,2.519,13.529,6.256,20.055,9.931c12.033,6.78,22.741,15.346,32.813,24.613c11.43,10.522,20.876,22.749,27.479,36.973
	c0.542,1.166,1.199,2.207,2.639,2.384c-0.458,3.639,1.359,6.756,2.36,10.047c2.506,8.23,3.274,16.748,4.377,25.213
	c2.165,9.584,4.429,19.155,6.476,28.769c3.87,18.163,6.7,36.51,9.301,54.889c1.849,13.068,3.533,26.163,4.638,39.323
	c0.104,1.197,0.56,2.364,1.479,3.595c1.197-5.789,2.474-11.563,3.574-17.371c2.712-14.313,5.267-28.661,7.154-43.106
	c2.055-15.687,3.727-31.401,5.096-47.168c1.211-13.956,1.355-27.896,1.405-41.864c0.006-1.261,0-2.542,1.372-3.229
	C682.438,385.22,681.903,379.522,681.814,373.789z"/>
<path fill="#D4A77D" d="M630.941,355.809c-3.909-14.207-9.352-27.922-17.313-40.323c-9.32-14.517-20.225-27.692-34.813-37.557
	c-6.313-4.267-12.617-8.504-19.322-12.037c-5.584-2.943-11.48-5.418-17.456-7.465c-7.411-2.538-14.856-5.118-22.748-5.966
	c-12.072-1.297-24.054-1.173-35.943,1.623c-12.063,2.837-22.688,8.647-32.675,15.751c-2.603,1.851-4.554,4.528-7.332,6.207
	c0,0.014,0,0.028,0,0.042c-0.021-0.027-0.049-0.042-0.074-0.042c-0.021,0-0.047,0.014-0.066,0.038c0-0.013,0-0.025,0-0.038
	c-2.778-1.679-4.729-4.356-7.332-6.207c-9.984-7.104-20.608-12.914-32.677-15.751c-11.892-2.796-23.869-2.92-35.941-1.623
	c-7.894,0.848-15.337,3.428-22.748,5.966c-5.976,2.046-11.872,4.521-17.457,7.465c-6.704,3.533-13.013,7.771-19.322,12.037
	c-14.59,9.865-25.495,23.041-34.813,37.557c-7.963,12.401-13.401,26.116-17.311,40.323c-2.341,8.508-4.751,17.063-5.09,25.99
	c1.44-0.175,2.099-1.217,2.642-2.385c6.604-14.224,16.049-26.45,27.48-36.973c10.067-9.268,20.775-17.833,32.813-24.613
	c6.521-3.675,12.947-7.412,20.053-9.931c3.604-1.28,7.313-1.603,10.993-1.771c6.604-0.302,13.234-0.076,19.855-0.089
	c1.914-0.004,3.725,0.339,5.354,1.391c6.543-0.508,12.884,0.837,19.149,2.363c18.661,4.544,35.542,12.799,50.58,24.779
	c1.255,0.737,2.515,1.473,3.769,2.21c0.021,0.029,0.051,0.046,0.076,0.046c0.021,0,0.05-0.015,0.07-0.042
	c1.256-0.738,2.518-1.476,3.771-2.214c15.038-11.98,31.919-20.235,50.579-24.779c6.27-1.526,12.605-2.872,19.149-2.363
	c1.635-1.052,3.438-1.395,5.354-1.391c6.621,0.013,13.252-0.213,19.856,0.089c3.679,0.167,7.388,0.49,10.991,1.771
	c7.104,2.519,13.529,6.256,20.056,9.931c12.032,6.78,22.74,15.346,32.812,24.613c11.43,10.522,20.876,22.749,27.479,36.973
	c0.544,1.168,1.201,2.21,2.645,2.385C635.693,372.871,633.283,364.317,630.941,355.809z"/>
<path fill="#86582B" d="M282.005,404.265c1.129-15.643,7.745-28.976,17.167-41.184c17.657-22.875,39.963-39.98,65.527-53.078
	c1.666-0.854,3.328-1.717,4.992-2.575c6.543-0.508,12.884,0.837,19.149,2.363c18.661,4.544,35.542,12.799,50.58,24.779
	c-2.729,0.813-4.68-1.231-6.857-2.097c-15.703-6.231-31.974-8.722-48.771-7.629c-13.604,0.884-25.328,6.711-36.344,14.331
	c-16.239,11.231-29.704,25.517-43.189,39.692c-6.745,7.09-13.387,14.425-18.896,22.632
	C284.578,402.669,283.744,404.104,282.005,404.265z"/>
<path fill="#86582B" d="M604.529,404.265c-1.129-15.643-7.745-28.976-17.168-41.184c-17.656-22.875-39.964-39.98-65.526-53.078
	c-1.666-0.854-3.328-1.717-4.992-2.575c-6.544-0.508-12.884,0.837-19.152,2.363c-18.657,4.544-35.538,12.799-50.576,24.779
	c2.729,0.813,4.68-1.231,6.857-2.097c15.702-6.231,31.974-8.722,48.771-7.629c13.604,0.884,25.328,6.711,36.344,14.331
	c16.238,11.231,29.703,25.517,43.188,39.692c6.743,7.09,13.389,14.425,18.896,22.632
	C601.957,402.669,602.791,404.104,604.529,404.265z"/>
<g>
	<path fill="#794722" d="M589.926,874.039c-1.729,4.089-4.388,7.919-4.847,12.51c27.489-0.011,54.984-0.011,82.48-0.011
		c-7.705-28.652-15.396-57.382-23.117-86.03c-15.771-58.505-31.557-117.006-47.342-175.507c-0.227-0.835-0.563-1.642-0.85-2.461
		c-0.83,1.666-1.671,3.326-2.486,4.998c-12.439,25.502-30.333,46.784-51.041,65.882c-1.466,1.354-2.968,2.666-4.475,3.974
		c-1.409,1.228-2.758,2.563-5.154,3.54c6.949-18.848,12.697-37.275,17.126-56.097c3.516-14.919,6.849-29.883,7.909-45.229
		c-0.655,0.903-1.346,1.783-1.959,2.72c-7.303,11.104-15.532,21.354-26.342,29.331c-8.033,5.927-16.746,10.348-26.555,12.362
		c-4.436,0.913-4.889,0.288-3.775-4c1.215-4.699,2.497-9.392,3.59-14.119c4.09-17.722,8.027-35.471,9.405-53.662
		c-3.3,0.512-9.898,1.529-9.898,1.529s-5.698,0.567-8.547,0.85c-5.638,1.639-11.522,1.771-17.255,2.872
		c-2.326,0.447-4.285-0.178-6.338-1.405c-8.98-5.372-18.068-10.568-27.117-15.828c0,0.029,0,0.063,0,0.088
		c-0.021-0.047-0.047-0.08-0.07-0.08c-0.021,0-0.05,0.034-0.07,0.084c0-0.026,0-0.061,0-0.092
		c-9.051,5.26-18.139,10.456-27.118,15.828c-2.054,1.229-4.011,1.854-6.338,1.405c-5.729-1.104-11.617-1.233-17.254-2.872
		c-2.852-0.281-5.697-0.564-8.55-0.847c0,0.001,0.001,0.002,0.001,0.004c-3.3-0.516-6.599-1.024-9.896-1.536
		c1.378,18.191,5.315,35.94,9.405,53.662c1.093,4.729,2.375,9.42,3.59,14.12c1.111,4.288,0.658,4.913-3.775,4
		c-9.809-2.017-18.521-6.438-26.555-12.363c-10.809-7.979-19.039-18.229-26.342-29.331c-0.612-0.936-1.305-1.815-1.959-2.72
		c1.063,15.348,4.396,30.312,7.91,45.229c4.429,18.82,10.177,37.249,17.126,56.098c-2.397-0.978-3.745-2.313-5.155-3.54
		c-1.506-1.309-3.008-2.619-4.477-3.975c-20.707-19.098-38.6-40.38-51.042-65.882c-0.816-1.672-1.657-3.332-2.487-4.998
		c-0.286,0.819-0.623,1.626-0.849,2.461c-15.786,58.501-31.569,117.002-47.339,175.507c-7.722,28.648-15.417,57.378-23.124,86.03
		c27.496,0,54.994,0,82.491,0.011c-0.459-4.591-3.118-8.421-4.847-12.51c-3.843-9.078-8.01-18.017-12.005-27.032
		c-1.755-3.962-1.687-4.072,2.769-3.935c4.364,0.134,8.727,0.369,13.087,0.621c2.038,0.116,2.561-0.548,2.123-2.638
		c-2.082-10.012-4.001-20.056-5.983-30.088c-0.167-0.843-0.568-1.668,0.008-2.803c5.91,4.851,10.199,11.232,16.056,15.999
		c-0.134-8.242-2.172-16.229-3.351-24.33c-1.904-13.083-4.291-26.098-6.157-39.188c-0.764-5.366,1.603-10.408,2.353-15.639
		c0.34-0.063,0.683-0.131,1.021-0.192c2.277,4.322,4.553,8.647,7.256,13.784c1.254-3.84,2.263-6.828,3.21-9.842
		c2.096-6.669,4.256-13.317,6.2-20.033c0.809-2.804,1.842-3.078,3.992-1.219c5.003,4.332,10.095,8.563,15.16,12.82
		c0.354,0.297,0.8,0.494,1.609,0.979c1.684-13.563,3.322-26.786,4.963-40.015c0.272-0.024,0.542-0.048,0.813-0.071
		c5.566,21.004,11.141,42.012,16.711,63.017c0.262,0.047,0.521,0.096,0.786,0.146c6.192-15.107,12.392-30.223,18.588-45.334
		c0.287,0,0.572,0.001,0.854,0.002c2.811,12.791,5.615,25.583,8.424,38.375c0.273,0.088,0.551,0.182,0.82,0.271
		c7.786-14.348,15.573-28.692,23.742-43.742c2.879,7.854,5.509,15.032,8.256,22.528c1.621-1.094,1.862-2.622,2.383-3.896
		c3.823-9.363,7.588-18.75,11.374-28.127c0.366-0.908,0.602-1.947,1.591-2.469c0.988,0.521,1.224,1.561,1.589,2.469
		c3.786,9.377,7.551,18.764,11.373,28.127c0.521,1.274,0.763,2.804,2.384,3.896c2.747-7.496,5.377-14.676,8.256-22.528
		c8.169,15.05,15.955,29.396,23.742,43.742c0.271-0.091,0.547-0.185,0.816-0.271c2.813-12.792,5.615-25.584,8.427-38.375
		c0.28-0.001,0.565-0.002,0.854-0.002c6.196,15.111,12.395,30.227,18.588,45.334c0.263-0.05,0.523-0.099,0.786-0.146
		c5.569-21.005,11.141-42.013,16.711-63.017c0.271,0.023,0.54,0.047,0.813,0.071c1.641,13.229,3.277,26.452,4.964,40.015
		c0.811-0.484,1.256-0.683,1.607-0.979c5.066-4.258,10.158-8.488,15.161-12.82c2.149-1.859,3.185-1.585,3.992,1.219
		c1.944,6.716,4.104,13.364,6.2,20.033c0.947,3.014,1.955,6.002,3.21,9.842c2.703-5.137,4.979-9.462,7.256-13.784
		c0.34,0.063,0.682,0.131,1.021,0.192c0.75,5.229,3.114,10.271,2.354,15.639c-1.866,13.09-4.253,26.104-6.157,39.188
		c-1.179,8.1-3.216,16.087-3.35,24.329c5.856-4.768,10.146-11.147,16.056-15.998c0.576,1.135,0.174,1.96,0.008,2.803
		c-1.979,10.032-3.897,20.076-5.979,30.088c-0.438,2.09,0.085,2.753,2.123,2.638c4.356-0.252,8.723-0.487,13.087-0.621
		c4.455-0.138,4.523-0.027,2.77,3.935C597.937,856.022,593.769,864.961,589.926,874.039z"/>
	<path fill="#794722" d="M573.864,824.254c0-0.03,0.003-0.06,0.004-0.09c-0.018,0.014-0.031,0.028-0.048,0.042L573.864,824.254z"/>
	<path fill="#794722" d="M312.718,824.206c-0.016-0.013-0.031-0.027-0.047-0.041c0,0.03,0.003,0.06,0.004,0.089L312.718,824.206z"/>
</g>
<path fill="#6B3A1A" d="M667.561,886.538c-7.706-28.652-15.396-57.382-23.117-86.03c-15.771-58.505-31.557-117.006-47.343-175.507
	c-0.226-0.835-0.563-1.642-0.849-2.461c-0.83,1.666-1.671,3.326-2.486,4.998c-12.439,25.502-30.333,46.784-51.041,65.882
	c-1.466,1.354-2.968,2.666-4.475,3.974c-1.409,1.228-2.758,2.563-5.154,3.54c6.949-18.848,12.697-37.275,17.126-56.097
	c3.516-14.919,6.849-29.883,7.909-45.229c-0.655,0.903-1.346,1.783-1.959,2.72c-7.303,11.104-15.532,21.354-26.342,29.331
	c-8.033,5.927-16.746,10.348-26.555,12.362c-4.436,0.913-4.889,0.288-3.775-4c1.215-4.699,2.497-9.392,3.59-14.119
	c4.09-17.722,8.027-35.471,9.405-53.662c-3.3,0.512-6.6,1.021-9.898,1.536c-3.347,11.301-6.687,22.604-10.052,33.896
	c-0.301,1.007-1.172,1.572-2.021,2.115c-6.069,3.886-12.179,7.714-18.181,11.7c-1.814,1.207-3.396,1.387-5.521,0.802
	c-7.772-2.138-15.516-4.738-23.557-5.789c0,28.496,0,56.993,0,85.489c0.992,0.521,1.227,1.563,1.593,2.472
	c3.785,9.377,7.551,18.764,11.373,28.127c0.521,1.274,0.763,2.804,2.384,3.896c2.747-7.496,5.377-14.676,8.256-22.528
	c8.169,15.05,15.955,29.396,23.742,43.742c0.271-0.091,0.547-0.185,0.816-0.271c2.813-12.792,5.615-25.584,8.427-38.375
	c0.28-0.001,0.565-0.002,0.854-0.002c6.196,15.111,12.395,30.227,18.588,45.334c0.264-0.05,0.523-0.099,0.786-0.146
	c5.569-21.005,11.141-42.013,16.711-63.017c0.271,0.023,0.54,0.047,0.813,0.071c1.641,13.229,3.277,26.452,4.964,40.015
	c0.811-0.484,1.256-0.683,1.607-0.979c5.066-4.258,10.158-8.488,15.161-12.82c2.149-1.859,3.185-1.585,3.992,1.219
	c1.944,6.716,4.104,13.364,6.2,20.033c0.947,3.014,1.955,6.002,3.21,9.842c2.703-5.137,4.979-9.462,7.256-13.784
	c0.34,0.063,0.682,0.131,1.021,0.192c0.75,5.229,3.113,10.271,2.353,15.639c-1.866,13.09-4.253,26.104-6.157,39.188
	c-1.183,8.129-3.232,16.146-3.354,24.419l-0.044-0.048c5.883-4.771,10.178-11.176,16.104-16.04c0.576,1.135,0.174,1.96,0.008,2.803
	c-1.979,10.032-3.897,20.076-5.979,30.088c-0.438,2.09,0.085,2.754,2.123,2.638c4.356-0.252,8.723-0.487,13.087-0.621
	c4.455-0.138,4.523-0.027,2.77,3.935c-3.993,9.017-8.161,17.954-12.005,27.032c-1.729,4.089-4.388,7.919-4.847,12.51
	C612.568,886.538,640.063,886.538,667.561,886.538z"/>
<g>
	<path fill="#85562B" d="M443.269,560.264c-0.021,0-0.049,0.034-0.069,0.084c0-0.026,0-0.061,0-0.092
		c-9.051,5.26-18.14,10.456-27.118,15.828c-2.054,1.228-4.011,1.853-6.338,1.405c-5.729-1.104-11.617-1.233-17.254-2.872
		c-2.852-0.281-5.697-0.564-8.551-0.847c3.351,11.302,6.688,22.604,10.056,33.896c0.3,1.007,1.172,1.572,2.021,2.115
		c6.069,3.886,12.176,7.714,18.18,11.7c1.815,1.206,3.396,1.387,5.522,0.802c7.773-2.139,15.441-4.738,23.483-5.789
		c0-0.034,0-0.067,0-0.104c0.021,0.052,0.048,0.082,0.068,0.083C443.269,597.738,443.269,579.002,443.269,560.264z"/>
</g>
<path fill="#261714" d="M479.575,573.055c-1.708-0.146-3.104-0.772-4.464-1.684c-8.404-5.584-16.791-11.197-25.247-16.703
	c-1.561-1.012-2.044-2.206-2.166-3.973c-1.146-16.646-2.378-33.283-3.591-49.923c-0.07-0.969,0.166-2.028-0.771-2.763
	c0,0.28-0.047,0-0.071,0c-0.021,0-0.069,0.295-0.069,0c-0.938,0.73-0.697,1.794-0.771,2.763c-1.213,16.64-2.44,33.274-3.591,49.923
	c-0.122,1.767-0.609,2.961-2.166,3.973c-8.456,5.506-16.843,11.119-25.247,16.703c-1.364,0.907-2.756,1.535-4.464,1.684
	c-4.833,0.418-9.65,1.028-14.475,1.563c5.638,1.639,11.523,1.771,17.254,2.872c2.324,0.443,4.283-0.182,6.338-1.405
	c8.979-5.372,18.066-10.568,27.118-15.828c0,0,0.048,0.021,0.069,0.021c0.024,0,0.071-0.021,0.071-0.021
	c9.049,5.26,18.136,10.456,27.117,15.828c2.053,1.229,4.012,1.854,6.338,1.405c5.729-1.104,11.617-1.233,17.255-2.872
	C489.225,574.083,484.408,573.473,479.575,573.055z"/>
</svg>
